<svg width="24" height="24" viewBox="0 0 24 24" fill="none" xmlns="http://www.w3.org/2000/svg">
<path d="M22.213 5.656C21.4496 5.99369 20.64 6.21547 19.811 6.314C20.6841 5.79114 21.3373 4.96874 21.649 4C20.829 4.488 19.93 4.83 18.994 5.015C18.3646 4.34158 17.5304 3.89496 16.621 3.74458C15.7116 3.59421 14.7779 3.74849 13.9653 4.18345C13.1526 4.61841 12.5064 5.30968 12.1271 6.14979C11.7478 6.9899 11.6567 7.93178 11.868 8.829C10.2049 8.74579 8.57797 8.31373 7.09274 7.56086C5.60751 6.808 4.29724 5.75117 3.247 4.459C2.87529 5.09745 2.67996 5.82323 2.681 6.562C2.681 8.012 3.42 9.293 4.541 10.043C3.87701 10.0221 3.22765 9.84274 2.647 9.52V9.571C2.64697 10.5369 2.98103 11.473 3.59253 12.2207C4.20403 12.9683 5.05531 13.4814 6.002 13.673C5.38564 13.8402 4.73929 13.8648 4.112 13.745C4.37892 14.5764 4.89921 15.3035 5.6 15.8244C6.30078 16.3453 7.14696 16.634 8.02 16.65C7.15236 17.3315 6.15889 17.8352 5.09641 18.1324C4.03393 18.4296 2.92329 18.5144 1.828 18.382C3.73972 19.6114 5.9651 20.2641 8.238 20.262C15.932 20.262 20.138 13.889 20.138 8.362C20.138 8.182 20.134 8 20.126 7.821C20.9444 7.22936 21.6508 6.49656 22.212 5.657" fill="black"/>
</svg>
