<svg width="0" height="0" class="hidden">
  <symbol fill="none" xmlns="http://www.w3.org/2000/svg" viewBox="0 0 18 18" id="linkedin">
    <path d="M16 0C16.5304 0 17.0391 0.210714 17.4142 0.585786C17.7893 0.960859 18 1.46957 18 2V16C18 16.5304 17.7893 17.0391 17.4142 17.4142C17.0391 17.7893 16.5304 18 16 18H2C1.46957 18 0.960859 17.7893 0.585786 17.4142C0.210714 17.0391 0 16.5304 0 16V2C0 1.46957 0.210714 0.960859 0.585786 0.585786C0.960859 0.210714 1.46957 0 2 0H16ZM15.5 15.5V10.2C15.5 9.33539 15.1565 8.5062 14.5452 7.89483C13.9338 7.28346 13.1046 6.94 12.24 6.94C11.39 6.94 10.4 7.46 9.92 8.24V7.13H7.13V15.5H9.92V10.57C9.92 9.8 10.54 9.17 11.31 9.17C11.6813 9.17 12.0374 9.3175 12.2999 9.58005C12.5625 9.8426 12.71 10.1987 12.71 10.57V15.5H15.5ZM3.88 5.56C4.32556 5.56 4.75288 5.383 5.06794 5.06794C5.383 4.75288 5.56 4.32556 5.56 3.88C5.56 2.95 4.81 2.19 3.88 2.19C3.43178 2.19 3.00193 2.36805 2.68499 2.68499C2.36805 3.00193 2.19 3.43178 2.19 3.88C2.19 4.81 2.95 5.56 3.88 5.56ZM5.27 15.5V7.13H2.5V15.5H5.27Z" fill="#FF5722"></path>
  </symbol>
  <symbol fill="none" xmlns="http://www.w3.org/2000/svg" viewBox="0 0 25 25" id="location">
    <path d="M12.2333 14.904C13.8902 14.904 15.2333 13.5609 15.2333 11.904C15.2333 10.2471 13.8902 8.90399 12.2333 8.90399C10.5764 8.90399 9.23334 10.2471 9.23334 11.904C9.23334 13.5609 10.5764 14.904 12.2333 14.904Z" stroke="#FF5722" stroke-width="1.5" stroke-linecap="round" stroke-linejoin="round"></path>
    <path d="M12.2333 21.904C16.6516 19.904 20.2333 16.3223 20.2333 11.904C20.2333 7.48571 16.6516 3.90399 12.2333 3.90399C7.81506 3.90399 4.23334 7.48571 4.23334 11.904C4.23334 16.3223 7.81506 19.904 12.2333 21.904Z" stroke="#FF5722" stroke-width="1.5" stroke-linecap="round" stroke-linejoin="round"></path>
  </symbol>
  <symbol fill="none" xmlns="http://www.w3.org/2000/svg" viewBox="0 0 25 25" id="mail">
    <path d="M20.2333 5.90399H4.23334C3.9572 5.90399 3.7072 6.01592 3.52623 6.19688C3.34527 6.37785 3.23334 6.62785 3.23334 6.90399V18.904C3.23334 19.4563 3.68106 19.904 4.23334 19.904H20.2333C20.7856 19.904 21.2333 19.4563 21.2333 18.904V6.90399C21.2333 6.62785 21.1214 6.37785 20.9404 6.19688C20.7594 6.01592 20.5094 5.90399 20.2333 5.90399Z" stroke="#FF5722" stroke-width="1.5" stroke-linecap="round" stroke-linejoin="round"></path>
    <path d="M3.52623 6.19684L10.8191 13.4897C11.6001 14.2708 12.8665 14.2708 13.6475 13.4897L20.9404 6.19684" stroke="#FF5722" stroke-width="1.5" stroke-linecap="round" stroke-linejoin="round"></path>
  </symbol>
  <symbol fill="none" xmlns="http://www.w3.org/2000/svg" viewBox="0 0 25 25" id="smartphone">
    <path d="M16.2333 3.90399H8.23334C7.12877 3.90399 6.23334 4.79942 6.23334 5.90399V19.904C6.23334 21.0086 7.12877 21.904 8.23334 21.904H16.2333C17.3379 21.904 18.2333 21.0086 18.2333 19.904V5.90399C18.2333 4.79942 17.3379 3.90399 16.2333 3.90399Z" stroke="#FF5722" stroke-width="1.5" stroke-linecap="round" stroke-linejoin="round"></path>
    <path d="M12.2333 18.914V18.904" stroke="#FF5722" stroke-width="1.5" stroke-linecap="round" stroke-linejoin="round"></path>
  </symbol>
  <symbol fill="none" xmlns="http://www.w3.org/2000/svg" viewBox="0 0 18 14" id="twitter">
    <path d="M17.125 1.9668C16.5273 2.22462 15.877 2.41016 15.207 2.48243C15.9026 2.06922 16.4234 1.41641 16.6719 0.646492C16.0192 1.03475 15.3042 1.30701 14.5586 1.45118C14.247 1.11803 13.8701 0.852625 13.4514 0.671507C13.0327 0.490389 12.5812 0.397438 12.125 0.398446C10.2793 0.398446 8.79492 1.89454 8.79492 3.73048C8.79492 3.98829 8.82617 4.2461 8.87695 4.49415C6.11328 4.34962 3.64844 3.0293 2.00977 1.00782C1.71118 1.51781 1.55471 2.0985 1.55664 2.68946C1.55664 3.84571 2.14453 4.86524 3.04102 5.46485C2.5127 5.44405 1.99676 5.29883 1.53516 5.04102V5.08204C1.53516 6.70118 2.67969 8.04298 4.20508 8.35157C3.91867 8.42597 3.62404 8.46403 3.32813 8.46485C3.11133 8.46485 2.90625 8.44337 2.69922 8.41407C3.12109 9.73438 4.34961 10.6934 5.8125 10.7246C4.66797 11.6211 3.23438 12.1484 1.67773 12.1484C1.39844 12.1484 1.14062 12.1387 0.873047 12.1074C2.34961 13.0547 4.10156 13.6016 5.98828 13.6016C12.1133 13.6016 15.4648 8.52735 15.4648 4.12306C15.4648 3.97852 15.4648 3.83399 15.4551 3.68946C16.1035 3.21485 16.6719 2.62696 17.125 1.9668Z" fill="#FF5722"></path>
  </symbol>
  <symbol fill="none" xmlns="http://www.w3.org/2000/svg" viewBox="0 0 20 20" id="facebook">
    <path fill-rule="evenodd" clip-rule="evenodd" d="M13.725 20V12.255H16.325L16.714 9.237H13.724V7.31C13.724 6.436 13.967 5.84 15.221 5.84H16.819V3.14C16.0451 3.05764 15.2673 3.01758 14.489 3.02C12.185 3.02 10.608 4.427 10.608 7.01V9.237H8V12.255H10.607V20H1.104C0.494 20 0 19.506 0 18.896V1.104C0 0.494 0.494 0 1.104 0H18.896C19.506 0 20 0.494 20 1.104V18.896C20 19.506 19.506 20 18.896 20H13.725Z" fill="#FF5722"></path>
  </symbol>
</svg>