<svg width="18" height="14" viewBox="0 0 18 14" fill="none" xmlns="http://www.w3.org/2000/svg">
<path d="M17.125 1.9668C16.5273 2.22462 15.877 2.41016 15.207 2.48243C15.9026 2.06922 16.4234 1.41641 16.6719 0.646492C16.0192 1.03475 15.3042 1.30701 14.5586 1.45118C14.247 1.11803 13.8701 0.852625 13.4514 0.671507C13.0327 0.490389 12.5812 0.397438 12.125 0.398446C10.2793 0.398446 8.79492 1.89454 8.79492 3.73048C8.79492 3.98829 8.82617 4.2461 8.87695 4.49415C6.11328 4.34962 3.64844 3.0293 2.00977 1.00782C1.71118 1.51781 1.55471 2.0985 1.55664 2.68946C1.55664 3.84571 2.14453 4.86524 3.04102 5.46485C2.5127 5.44405 1.99676 5.29883 1.53516 5.04102V5.08204C1.53516 6.70118 2.67969 8.04298 4.20508 8.35157C3.91867 8.42597 3.62404 8.46403 3.32813 8.46485C3.11133 8.46485 2.90625 8.44337 2.69922 8.41407C3.12109 9.73438 4.34961 10.6934 5.8125 10.7246C4.66797 11.6211 3.23438 12.1484 1.67773 12.1484C1.39844 12.1484 1.14062 12.1387 0.873047 12.1074C2.34961 13.0547 4.10156 13.6016 5.98828 13.6016C12.1133 13.6016 15.4648 8.52735 15.4648 4.12306C15.4648 3.97852 15.4648 3.83399 15.4551 3.68946C16.1035 3.21485 16.6719 2.62696 17.125 1.9668Z" fill="#FF5722"/>
</svg>
